<?xml version="1.0" encoding="utf-8"?>
<svg xmlns="http://www.w3.org/2000/svg" xmlns:xlink="http://www.w3.org/1999/xlink" style="margin: auto; background: rgb(255, 255, 255); display: block; shape-rendering: auto;" width="298px" height="298px" viewBox="0 0 100 100" preserveAspectRatio="xMidYMid">
<g transform="rotate(0 50 50)">
  <rect x="47.5" y="18.5" rx="2.5" ry="6.15" width="5" height="15" fill="#001a57">
    <animate attributeName="opacity" values="1;0" keyTimes="0;1" dur="1.8518518518518516s" begin="-1.736111111111111s" repeatCount="indefinite"></animate>
  </rect>
</g><g transform="rotate(22.5 50 50)">
  <rect x="47.5" y="18.5" rx="2.5" ry="6.15" width="5" height="15" fill="#001a57">
    <animate attributeName="opacity" values="1;0" keyTimes="0;1" dur="1.8518518518518516s" begin="-1.6203703703703702s" repeatCount="indefinite"></animate>
  </rect>
</g><g transform="rotate(45 50 50)">
  <rect x="47.5" y="18.5" rx="2.5" ry="6.15" width="5" height="15" fill="#001a57">
    <animate attributeName="opacity" values="1;0" keyTimes="0;1" dur="1.8518518518518516s" begin="-1.5046296296296295s" repeatCount="indefinite"></animate>
  </rect>
</g><g transform="rotate(67.5 50 50)">
  <rect x="47.5" y="18.5" rx="2.5" ry="6.15" width="5" height="15" fill="#001a57">
    <animate attributeName="opacity" values="1;0" keyTimes="0;1" dur="1.8518518518518516s" begin="-1.3888888888888888s" repeatCount="indefinite"></animate>
  </rect>
</g><g transform="rotate(90 50 50)">
  <rect x="47.5" y="18.5" rx="2.5" ry="6.15" width="5" height="15" fill="#001a57">
    <animate attributeName="opacity" values="1;0" keyTimes="0;1" dur="1.8518518518518516s" begin="-1.2731481481481481s" repeatCount="indefinite"></animate>
  </rect>
</g><g transform="rotate(112.5 50 50)">
  <rect x="47.5" y="18.5" rx="2.5" ry="6.15" width="5" height="15" fill="#001a57">
    <animate attributeName="opacity" values="1;0" keyTimes="0;1" dur="1.8518518518518516s" begin="-1.1574074074074074s" repeatCount="indefinite"></animate>
  </rect>
</g><g transform="rotate(135 50 50)">
  <rect x="47.5" y="18.5" rx="2.5" ry="6.15" width="5" height="15" fill="#001a57">
    <animate attributeName="opacity" values="1;0" keyTimes="0;1" dur="1.8518518518518516s" begin="-1.0416666666666665s" repeatCount="indefinite"></animate>
  </rect>
</g><g transform="rotate(157.5 50 50)">
  <rect x="47.5" y="18.5" rx="2.5" ry="6.15" width="5" height="15" fill="#001a57">
    <animate attributeName="opacity" values="1;0" keyTimes="0;1" dur="1.8518518518518516s" begin="-0.9259259259259258s" repeatCount="indefinite"></animate>
  </rect>
</g><g transform="rotate(180 50 50)">
  <rect x="47.5" y="18.5" rx="2.5" ry="6.15" width="5" height="15" fill="#001a57">
    <animate attributeName="opacity" values="1;0" keyTimes="0;1" dur="1.8518518518518516s" begin="-0.8101851851851851s" repeatCount="indefinite"></animate>
  </rect>
</g><g transform="rotate(202.5 50 50)">
  <rect x="47.5" y="18.5" rx="2.5" ry="6.15" width="5" height="15" fill="#001a57">
    <animate attributeName="opacity" values="1;0" keyTimes="0;1" dur="1.8518518518518516s" begin="-0.6944444444444444s" repeatCount="indefinite"></animate>
  </rect>
</g><g transform="rotate(225 50 50)">
  <rect x="47.5" y="18.5" rx="2.5" ry="6.15" width="5" height="15" fill="#001a57">
    <animate attributeName="opacity" values="1;0" keyTimes="0;1" dur="1.8518518518518516s" begin="-0.5787037037037037s" repeatCount="indefinite"></animate>
  </rect>
</g><g transform="rotate(247.5 50 50)">
  <rect x="47.5" y="18.5" rx="2.5" ry="6.15" width="5" height="15" fill="#001a57">
    <animate attributeName="opacity" values="1;0" keyTimes="0;1" dur="1.8518518518518516s" begin="-0.4629629629629629s" repeatCount="indefinite"></animate>
  </rect>
</g><g transform="rotate(270 50 50)">
  <rect x="47.5" y="18.5" rx="2.5" ry="6.15" width="5" height="15" fill="#001a57">
    <animate attributeName="opacity" values="1;0" keyTimes="0;1" dur="1.8518518518518516s" begin="-0.3472222222222222s" repeatCount="indefinite"></animate>
  </rect>
</g><g transform="rotate(292.5 50 50)">
  <rect x="47.5" y="18.5" rx="2.5" ry="6.15" width="5" height="15" fill="#001a57">
    <animate attributeName="opacity" values="1;0" keyTimes="0;1" dur="1.8518518518518516s" begin="-0.23148148148148145s" repeatCount="indefinite"></animate>
  </rect>
</g><g transform="rotate(315 50 50)">
  <rect x="47.5" y="18.5" rx="2.5" ry="6.15" width="5" height="15" fill="#001a57">
    <animate attributeName="opacity" values="1;0" keyTimes="0;1" dur="1.8518518518518516s" begin="-0.11574074074074073s" repeatCount="indefinite"></animate>
  </rect>
</g><g transform="rotate(337.5 50 50)">
  <rect x="47.5" y="18.5" rx="2.5" ry="6.15" width="5" height="15" fill="#001a57">
    <animate attributeName="opacity" values="1;0" keyTimes="0;1" dur="1.8518518518518516s" begin="0s" repeatCount="indefinite"></animate>
  </rect>
</g>
<!-- [ldio] generated by https://loading.io/ --></svg>